<?xml version="1.0" encoding="utf-8"?>
<!-- Generator: Adobe Illustrator 28.1.0, SVG Export Plug-In . SVG Version: 6.00 Build 0)  -->
<svg version="1.1" id="Layer_1" xmlns="http://www.w3.org/2000/svg" xmlns:xlink="http://www.w3.org/1999/xlink" x="0px" y="0px"
	 viewBox="0 0 635.5 670.7" style="enable-background:new 0 0 635.5 670.7;" xml:space="preserve">
<style type="text/css">
	.st0{fill:#F1B2B5;}
	.st1{fill:#BEBEBE;}
</style>
<g>
	<g>
		<g>
			<path class="st0" d="M633.5,340.4c0,0-102.2,183.3-315.7,297.1C104.3,523.7,2,340.4,2,340.4c-31.7,283,315.7,330.3,315.7,330.3
				S665.2,623.4,633.5,340.4z"/>
			<path class="st0" d="M317.8,0c0,0-205.4,165.2,0,444.1C523.2,165.2,317.8,0,317.8,0z"/>
			<path class="st0" d="M317.8,571c385.2-250.8,188.1-421.4,188.1-421.4c-28.7,204.7-188.1,379.9-188.1,379.9
				S158.4,354.2,129.7,149.5C129.7,149.5-67.4,320.2,317.8,571z"/>
		</g>
	</g>
</g>
</svg>
