<?xml version="1.0" encoding="utf-8"?>
<!-- Generator: Adobe Illustrator 28.1.0, SVG Export Plug-In . SVG Version: 6.00 Build 0)  -->
<svg version="1.1" id="Layer_1" xmlns="http://www.w3.org/2000/svg" xmlns:xlink="http://www.w3.org/1999/xlink" x="0px" y="0px"
	 viewBox="0 0 2000 670.7" style="enable-background:new 0 0 2000 670.7;" xml:space="preserve">
<style type="text/css">
	.st0{fill:#F1B2B5;}
	.st1{fill:#BEBEBE;}
</style>
<g>
	<g>
		<g>
			<path class="st1" d="M403.1,386.2c0-70.8,46.3-120.1,108.2-120.1c10.7,0,23.7,3.1,36.7,8.4l32.9-8.4v201.2h-39.8v-55.1
				c-11.1,39-36.3,58.9-69.6,58.9C427.2,471.1,403.1,439.8,403.1,386.2z M444.5,351.8c0,57.8,10.3,110.2,43.6,110.2
				c31,0,53.2-38.2,53.2-93.7v-37.1c0-23.7-11.5-58.5-46.3-58.5C470.5,272.6,444.5,296.3,444.5,351.8z"/>
			<path class="st1" d="M745.5,339.6L720.2,270h42.1l59.3,165.6L880.9,270h4.2l-70.8,197.7h-22.9l-44-122l-43.6,122h-23.3L609.7,270
				h42.1L711,435.6L745.5,339.6z"/>
			<path class="st1" d="M1075.2,394.3c-7.3,38.6-39,76.5-80.3,76.5c-55.8,0-98.3-47-98.3-101.7c0-54.3,43.6-102.9,100.6-102.9
				c29.1,0,56.6,13.4,56.6,44.4c0,42.1-64.3,76.5-108.2,86.1c9.9,25.2,29.4,46.7,62.3,46.7c34.8,0,53.9-20.3,64.6-49.7L1075.2,394.3
				z M937.5,352.2c0,12.6,1.9,26.8,6.5,40.5c47-23.7,72.3-59.7,72.3-89.9c0-22.6-11.5-31.7-25.2-31.7
				C949.3,271.1,937.5,317,937.5,352.2z"/>
			<path class="st1" d="M1243.8,412.2c0,38.2-26.4,57.4-73.1,57.4c-99.1,0-102.1-71.5-53.2-95.2l1.9,2.3
				c-25.2,37.5,22.6,85.7,69.6,85.7c18.4,0,41.7-7.6,41.7-29.8c0-39.4-136.5-49.3-136.5-112.8c0-32.5,29.5-53.5,76.9-53.5
				c29.5,0,66.2,14.9,66.2,42.8c0,17.6-10.7,31.7-31,42.8l-2.7-2.3c21.4-32.1-12.6-78.4-51.3-78.4c-16.8,0-32.1,7.3-32.1,26
				C1120.3,347.6,1243.8,348.7,1243.8,412.2z"/>
			<path class="st1" d="M1466.4,368.2c0,54.3-42.5,101.7-98.3,101.7c-55.5,0-97.9-47.4-97.9-101.7c0-54.7,42.5-101.7,98.3-101.7
				C1424,266.5,1466.4,313.6,1466.4,368.2z M1371.6,465.8c33.7-1.1,54.7-40.9,52.4-99.4c-1.9-58.5-25.2-96.8-58.9-95.6
				c-33.7,1.1-54.7,40.9-52.4,99.4C1314.6,428.7,1337.9,466.9,1371.6,465.8z"/>
			<path class="st1" d="M1783.1,335v132.3h-39.4V323.9c0-31.4-8.4-46.3-29.8-46.3c-31,0-49.3,46.3-49.3,96.8v92.9h-39.4V323.9
				c0-31.4-8-46.3-29.5-46.3c-31.4,0-49.7,46.3-49.7,96.8v92.9h-39.4V276.5l39.4-9.9v67.3c9.2-40.2,31-67.3,66.6-67.3
				c31.4,0,51.6,17.2,52,67.3c9.2-40.2,31-67.3,66.2-67.3C1762.5,266.5,1783.1,284.1,1783.1,335z"/>
			<path class="st1" d="M2000,394.3c-7.3,38.6-39,76.5-80.3,76.5c-55.8,0-98.3-47-98.3-101.7c0-54.3,43.6-102.9,100.6-102.9
				c29.1,0,56.6,13.4,56.6,44.4c0,42.1-64.3,76.5-108.2,86.1c9.9,25.2,29.5,46.7,62.3,46.7c34.8,0,53.9-20.3,64.6-49.7L2000,394.3z
				 M1862.3,352.2c0,12.6,1.9,26.8,6.5,40.5c47-23.7,72.3-59.7,72.3-89.9c0-22.6-11.5-31.7-25.2-31.7
				C1874.2,271.1,1862.3,317,1862.3,352.2z"/>
		</g>
	</g>
	<g>
		<g>
			<path class="st0" d="M346.9,338.1c0,0-56,100.4-172.9,162.7C57.1,438.5,1.1,338.1,1.1,338.1C-16.2,493.1,174,519,174,519
				S364.2,493.1,346.9,338.1z"/>
			<path class="st0" d="M174,151.7c0,0-112.5,90.4,0,243.2C286.5,242.2,174,151.7,174,151.7z"/>
			<path class="st0" d="M174,464.4c210.9-137.3,103-230.8,103-230.8c-15.7,112.1-103,208-103,208s-87.3-95.9-103-208
				C71,233.6-36.9,327.1,174,464.4z"/>
		</g>
	</g>
</g>
</svg>
