<?xml version="1.0" encoding="utf-8"?>
<!-- Generator: Adobe Illustrator 28.1.0, SVG Export Plug-In . SVG Version: 6.00 Build 0)  -->
<svg version="1.1" id="Layer_1" xmlns="http://www.w3.org/2000/svg" xmlns:xlink="http://www.w3.org/1999/xlink" x="0px" y="0px"
	 viewBox="0 0 2000 670.7" style="enable-background:new 0 0 2000 670.7;" xml:space="preserve">
<style type="text/css">
	.st0{fill:#F1B2B5;}
	.st1{fill:#BEBEBE;}
</style>
<g>
	<g>
		<g>
			<path class="st0" d="M567,349.8c0.7,1.1,0.5,2-0.6,2.7c-1.1,0.7-2.2,0.5-3.3-0.5c-6.2-9.9-13.2-18-21-24.3
				c-7.8-6.3-16.4-11.3-25.7-15c-3.5,27.4-5.8,54.5-6.9,81.3c-1.1,26.8,1,52.8,6.2,78.1c1,6.1,3,14.8,6,26.3
				c3,11.5,7.1,22.1,12.4,31.7c5.3,9.7,11.6,16.6,18.9,20.7c7.3,4.1,16.1,2,26.3-6.3c10.5-8.8,19.3-20.7,26.5-35.4
				c7.2-14.8,13.2-30.7,18.2-47.7c5-17,9.1-34,12.3-51c3.3-17,6.2-32.1,8.9-45.4c0.5-1.4,1.3-1.9,2.5-1.5c1.1,0.4,1.5,1.2,0.9,2.6
				c-2.8,14.6-5.9,30.2-9.2,46.8c-3.4,16.6-7.4,33.2-12,49.6c-4.7,16.5-10.2,32.4-16.6,47.6c-6.4,15.2-14.5,28.9-24.2,40.9
				c-5.4,7.2-11.8,13.7-19,19.4c-7.2,5.8-15.7,8.7-25.3,9c-10,0.3-18.9-2.8-26.6-9.4c-7.7-6.6-14.4-14.5-20-23.9
				c-5.6-9.4-10.2-19.3-13.8-29.8c-3.6-10.5-6.5-19.5-8.7-27c-7.4-27.3-11.7-56.4-12.9-87.5c-1.2-31.1-1-62.6,0.6-94.6
				c-20.4,2.8-40,9-59,18.7c-18.9,9.6-37.3,19.3-55.2,29.1c-12.2,29.9-24.6,59.3-37.4,88.3c-12.8,29-28.9,55.5-48.4,79.6
				c-21.4,26.6-42.4,46.1-63,58.5c-20.6,12.3-40.3,19.3-59.1,20.9c-18.8,1.6-36.2-1.3-52.3-8.5c-16.1-7.3-30.2-17.3-42.3-30.2
				c-12.2-12.9-22-27.6-29.6-44.3c-7.6-16.7-12.2-33.7-13.9-51c-1.6-17.3-0.1-34,4.7-50.1c4.7-16.1,13.5-29.9,26.3-41.4
				c7.6-6.9,16-12,25.1-15.2c9.1-3.2,18.4-4.8,28-4.5c9.5,0.2,18.9,2.6,28.2,7.1c9.3,4.5,18,11.2,26,20.2
				c16.7,18.7,33.5,29.4,50.4,32.1c16.8,2.7,33.9,0.8,51.1-5.7c17.2-6.5,34.4-15.4,51.6-27c17.2-11.5,34.4-22.1,51.4-31.7
				c9-22,17.2-45.4,24.7-70.4c7.5-24.9,14.8-49.9,22.1-74.8c7.3-24.9,15-49.1,23.2-72.6c8.2-23.5,17.4-44.8,27.5-64.1
				c9-16.9,17.2-30.2,24.8-39.8c7.6-9.6,14.5-16.2,20.8-19.9c5.2-2.9,9.8-4.2,14-3.7c4.1,0.5,7.8,2.1,11,4.9c3.2,2.8,6,6.4,8.3,10.6
				c2.3,4.3,4.4,8.5,6.2,12.7c6.8,19.4,10.6,40.7,11.3,63.9c0.7,23.2,0,46.8-2.1,70.9c-2.2,24.1-5.1,48.1-8.9,71.9
				c-3.7,23.9-6.9,46-9.6,66.4C537,316,553.8,329.8,567,349.8z M341.1,358.2c-11.9,6.7-23.5,13.7-35,21.1
				c-11.5,7.4-22.9,14.3-34.2,20.6c-11.3,6.3-22.7,11.7-34,16.1c-11.4,4.4-22.7,6.6-34.1,6.6c-11.4,0-22.7-2.7-33.9-8.2
				c-11.2-5.5-22.6-14.7-34.1-27.5c-15.1-17-32-25.8-50.9-26.3c-18.9-0.5-35.5,5.8-50,19c-12.1,10.9-20.5,24.1-25.2,39.6
				c-4.7,15.5-6.3,31.5-4.8,48.2c1.5,16.7,5.9,33.1,13.1,49.3c7.3,16.1,16.7,30.5,28.4,43c11.7,12.6,25.2,22.5,40.6,29.7
				c15.4,7.2,32.2,10.1,50.4,8.7c18.2-1.4,37.2-8,57.1-19.8s40.3-30.2,61.1-55.5c19.2-23.6,35.1-49.5,47.8-77.9
				C316.3,416.6,328.8,387.7,341.1,358.2z M461,302.8c0.8-14.1,2.1-30,4-47.7c1.8-17.7,3.6-35.6,5.4-53.7
				c1.7-18.1,3.1-35.8,4.2-53.1c1.1-17.3,1-32.8-0.1-46.4c-1.4-14.4-4.7-21.2-10-20.3c-6.2,0.6-12.8,6.7-20,18.1
				c-7.1,11.4-14.6,25.9-22.3,43.6c-7.7,17.7-15.4,37.1-22.9,58.3c-7.5,21.2-14.6,41.6-21.2,61.3c-6.6,19.7-12.4,37.4-17.5,53.2
				c-5,15.7-8.9,26.9-11.5,33.4c17.8-10.2,35.7-19.8,54-28.8C421.3,311.5,440.6,305.6,461,302.8z M470,306.3
				c-1.3-0.1-2.9,0.1-4.9,0.6c-2,32.1-2.3,63.5-0.9,94.3c1.3,30.8,5.7,59.9,13.1,87.1c1.6,6.8,4.2,15.2,7.7,25.3
				c3.5,10.1,7.9,19.8,13.3,29c5.4,9.2,11.7,17.2,19,23.8c7.3,6.7,15.7,9.7,25.2,9.1c3.7-0.5,7.5-1.4,11.3-2.7
				c-10.2,1.2-19.3-1.4-27.1-7.7c-7.8-6.3-14.7-14.3-20.6-24.1c-5.9-9.7-10.8-19.9-14.6-30.6c-3.8-10.7-6.7-20-8.6-27.9
				c-7.1-26.1-11.4-54.2-12.8-84.4C468.7,367.9,468.7,337.3,470,306.3z M465.3,302.3c0.9,0.2,1.7,0.2,2.5,0c0.8-0.2,1.6-0.2,2.5,0
				c0.7-14.5,2-30.8,4-49s3.8-36.6,5.6-55.4c1.8-18.7,3.2-37.1,4.1-55c0.9-17.9,0.8-33.9-0.5-47.9c-0.3-2.9-0.7-5.8-1.2-8.9
				c-0.5-3-1.3-5.5-2.4-7.3c-1.1-1.8-2.7-3-5-3.5c-2.2-0.5-5.2,0.1-9,1.9c6.9,0.9,11,8.9,12.2,24.2c1.2,13.6,1.2,29.1,0.1,46.4
				c-1.1,17.3-2.4,35-3.9,53.1c-1.5,18.1-3.2,35.9-5.1,53.6C467.4,272.4,466.1,288.2,465.3,302.3z"/>
			<path class="st0" d="M805.8,313c-1.8,11.8-3.3,25.2-4.5,40.2c-1.2,15-1.9,30.4-2.2,46c-0.2,15.6,0.4,30.6,2,45
				c1.6,14.4,4.7,26.9,9.4,37.5c3.1,7.7,6.4,12.8,10,15.3c3.5,2.5,7.3,3.1,11.2,1.7c3.9-1.4,7.7-4,11.4-7.8
				c3.7-3.8,7.5-8.3,11.3-13.5c7.6-11.9,14.4-24.8,20.3-38.7c5.9-13.8,11-28.1,15.2-42.8c4.2-14.7,7.4-29.5,9.5-44.3
				c2.1-14.8,3-29.1,2.6-42.9c-5.4-1.6-11.1-4-16.8-7c-5.8-3-11.1-6.6-15.8-10.7c-4.8-4.1-8.9-8.8-12.2-14.1c-3.4-5.3-5.4-11-6-17.2
				c-0.8-4.9-0.3-9.6,1.3-14.2c1.6-4.6,4-8.4,7-11.5c3.1-3,6.6-4.8,10.8-5.1c4.1-0.4,8.5,1.2,13.1,4.7c4.6,3.5,8.4,8.2,11.3,14
				c2.9,5.8,5.1,12.1,6.8,18.9c1.6,6.8,2.9,13.6,3.7,20.6c0.8,7,1.2,13,1.2,18c3.1,0.5,7.5,0.7,13.4,0.6c5.9-0.1,11.6-0.8,17.2-1.9
				c5.6-1.1,10.8-2.9,15.5-5.3c4.7-2.4,7.4-5.6,8.1-9.5c0.5-1.4,1.5-1.9,3.1-1.7c1.5,0.3,2,1.1,1.5,2.5c-0.9,4.9-3.8,8.7-8.6,11.5
				c-4.8,2.8-10.3,5-16.4,6.5c-6.2,1.5-12.4,2.4-18.6,2.6c-6.3,0.2-11.4,0-15.3-0.7c0.8,29.3-3.1,58.8-11.5,88.7
				c-8.4,29.8-20.1,57.3-35.1,82.4c-2.9,5.3-6.5,10.8-10.9,16.5c-4.3,5.7-9.2,10.7-14.6,15.2c-5.5,4.5-11.3,7.7-17.6,9.6
				c-6.3,1.9-12.8,1.8-19.7-0.3c-8.8-3.3-16.2-9.6-22.2-18.6c-5.7-7.9-10.1-17.1-13.3-27.7c-3.2-10.6-5.6-21.5-7.3-32.7
				c-1.7-11.2-2.7-22.4-3.1-33.7c-0.4-11.3-0.3-21.8,0.3-31.6c-2.3,11.5-4.8,22.9-7.5,34.3c-2.7,11.4-6.4,22.5-10.9,33.3
				c-1.5,4.2-3.7,8.8-6.4,13.9c-2.8,5.1-5.9,9.6-9.3,13.6c-3.5,4-7.6,7-12.4,9c-4.8,2-9.9,2-15.5-0.1c-4.5-1-9.1-3.7-13.9-8
				c-8.1-7.3-14.2-17.6-18.5-30.9c-4.3-13.3-7.3-27.3-9.2-42c-1.9-14.7-2.8-29.2-2.9-43.5c-0.1-14.3,0.3-26.6,1.2-36.9
				c1-11.6,2.2-23.5,3.7-35.6c1.5-12.1,3.4-24.6,5.8-37.4c0.3-2.2,3-3.1,8.1-2.9c5.1,0.2,10.5,1.6,16.1,4c5.6,2.4,10.6,5.8,15,10
				c4.4,4.2,6.2,9.1,5.5,14.8c-2.2,17-3.9,33.8-4.9,50.4c-1.3,13.8-2,28-2.1,42.5c-0.1,14.5,0.8,29,2.5,43.3c0.6,4.1,1.6,9.9,3,17.6
				c1.4,7.7,3.5,14.3,6.1,20c2.6,5.7,5.8,8.9,9.6,9.7c3.8,0.8,8.3-3.7,13.5-13.4c3.7-7.2,7-15.5,9.8-24.8c2.8-9.3,5.1-18.9,6.9-28.8
				c1.8-9.9,3.4-19.8,4.9-29.6c1.4-9.8,2.7-18.6,3.7-26.5c1.5-7.5,2.9-15.2,3.9-23c1.1-7.8,2.4-15.5,3.9-23c0-1.7,2.5-2.3,7.5-1.8
				c5,0.5,10.4,1.9,16.2,4.3c5.8,2.4,10.9,5.7,15.3,9.9C804.4,303.8,806.3,308.3,805.8,313z M698.5,478.5c-10.8-4.6-19.8-14-27-28.2
				c-4.7-9-8.3-19.1-10.8-30.2c-2.5-11.2-4.3-22.5-5.4-34.1c-1.1-11.5-1.7-23-1.7-34.3c0-11.4,0.4-22.2,1.3-32.5
				c1.6-23.1,4.6-46.6,8.9-70.4c-1.3-0.1-2.9,0.1-4.9,0.6c-4.5,25.1-7.4,48.7-8.8,71c-0.6,9.8-1,21.8-1.1,36
				c-0.2,14.2,0.7,28.5,2.5,43c1.8,14.5,4.8,28.2,9,41.1c4.2,12.9,10,22.8,17.6,29.9c2.8,2.7,5.8,4.8,9.1,6.3
				C690.6,478,694.3,478.7,698.5,478.5z M806.9,519.3c-10.6-3.8-19.6-12.1-26.9-25.1c-7.6-12.5-13-27.5-15.9-45.1
				c-3-17.6-4.5-35.7-4.6-54.5c-0.1-18.7,0.9-37.4,2.9-56c2-18.6,4.5-35.2,7.3-49.8c-0.8,0.2-1.6,0.3-2.5,0.3
				c-0.8,0-1.7,0.1-2.5,0.3c-2.4,14.5-4.7,31.3-6.7,50.6c-2.1,19.2-3.1,38.7-2.9,58.5c0.1,19.8,1.9,38.7,5.2,56.9
				c3.3,18.1,9.4,33.3,18.2,45.5c3.2,4.7,7.3,8.9,12.2,12.5C795.5,517.1,800.9,519.1,806.9,519.3z M902.2,304.3
				c-0.3-4.6-0.8-10.1-1.5-16.7c-0.7-6.6-1.9-13-3.4-19.4c-1.5-6.4-3.6-12.4-6.3-18.1c-2.6-5.7-6-10.1-10.2-13.3
				c-4.1-2.8-7.7-4-11-3.7c-3.3,0.4-6.1,1.9-8.4,4.5c-2.3,2.7-4,5.9-5.2,9.8c-1.2,3.9-1.5,7.8-0.9,11.9c0.5,5.8,2.4,11,5.7,15.7
				c3.2,4.7,7,9,11.3,12.8c4.3,3.8,9.1,7.2,14.4,10.1C892.1,300.8,897.2,303,902.2,304.3z"/>
			<path class="st0" d="M1060.3,250.4c-3.4,12.2-10.7,22.3-22.1,30.3c-11.3,8-22.6,14-33.9,18c-1.2,7-2.2,14.5-2.8,22.5
				c-0.6,7.9-0.8,15.9-0.6,23.8c0.2,7.9,1.1,15.6,2.7,23c1.6,7.4,3.9,14.1,7.1,20.1c5.3,9.7,11.2,15.4,17.7,17.2
				c6.5,1.8,13.1,1.2,19.7-1.9c6.6-3.1,13-7.6,19.2-13.5c6.2-5.9,11.1-11.6,14.8-17.2c6.2-9.1,11.7-18.8,16.3-29.2
				c4.6-10.4,8.6-20.9,12-31.6c3.3-10.7,6.2-21.4,8.7-32.1c2.5-10.7,4.9-20.8,7.2-30.2c0.4-1.8,1.2-2.4,2.4-1.8
				c1.2,0.6,1.5,1.5,1,2.9c-4.3,22.5-9.6,44.9-16,67.3c-6.4,22.4-15.4,42.6-27.1,60.5c-4.3,6.5-9.4,13.1-15.1,19.8
				c-5.8,6.7-11.9,12.5-18.5,17.4c-6.6,5-13.8,8.6-21.7,10.9c-7.9,2.3-16.1,2.2-24.7-0.4c-10.5-3.4-19.5-10.2-27.1-20.6
				c-5.1-7.2-9.2-15.4-12.2-24.5c-3-9.2-5.4-18.8-7-28.9c-1.6-10.1-2.4-20.3-2.3-30.4c0.1-10.1,0.7-19.8,1.9-28.9
				c2.1-15.7,6.2-31,12.3-45.9c6.1-14.9,16.3-26.9,30.5-35.8c8.1-4.9,16.1-7.4,24.1-7.4c8,0,14.8,1.8,20.6,5.5
				c5.7,3.7,10,9.1,12.7,16.2C1063.1,232.5,1063.1,240.8,1060.3,250.4z M1004.5,215.2c-13.6,8.3-23.2,19.8-29,34.5
				c-5.7,14.6-9.6,29.4-11.5,44.1c-1.2,10.8-1.6,23.5-1.2,38.2c0.4,14.7,2.5,28.6,6.3,41.7c3.8,13.2,9.5,24.6,17.1,34.1
				c7.6,9.5,17.7,14.7,30.6,15.4c-11-3.7-19.8-10.6-26.5-20.8c-6.7-10.2-11.7-21.7-15-34.6c-3.3-12.9-5.2-26.3-5.6-40.3
				c-0.4-14-0.1-26.4,1.1-37.2c1.7-13.9,5-27.4,9.8-40.6C985.4,236.5,993.4,225,1004.5,215.2z M1005.6,293.2
				c16.3-5.6,28.3-12.6,36-21c7.7-8.4,12.4-16.6,14.3-24.6c1.8-6.3,2.1-12,0.7-16.9c-1.4-4.9-3.6-8.4-6.6-10.4
				c-3-2-6.7-2.1-11.1-0.2c-4.4,1.9-8.7,6.3-12.9,13.2c-4.4,7.8-8.3,16.8-11.5,27.1c-3.2,10.2-5.9,19.8-7.9,28.8L1005.6,293.2z"/>
			<path class="st0" d="M1197.3,320.9c-7.3-9.2-14.9-16.7-22.8-22.6c-7.9-5.9-15.5-12-22.8-18.5c-7.2-6.5-14-13.9-20.2-22.3
				c-6.2-8.4-11.5-19.9-15.9-34.4c-2.3-7.9-3.6-16.4-4-25.6c-0.3-9.2,0.7-18.1,3-26.6c2.4-8.6,6.1-16.2,11.2-22.9
				c5.1-6.7,12.1-11.8,21-15.2c4.2-1.8,8.5-2.6,13-2.2c4.5,0.4,8.4,1.9,11.5,4.5c3.6,2.9,6.3,6.4,7.9,10.4c1.6,4,2.7,8.4,3.2,13.1
				c0.5,4.7,0.4,9.4-0.4,14c-0.8,4.6-1.7,8.9-2.9,13c-2.1,5.2-4.6,10.5-7.5,16c-2.9,5.5-6.2,10.9-10,16c3.3,6.8,7.7,13.2,13.2,19.2
				c5.5,6.1,11.4,12,17.9,17.8c6.5,5.8,12.8,11.7,19.1,17.5c6.3,5.9,11.6,12,16.2,18.5c13.5-13.8,25.4-27.5,35.6-41.1
				c10.2-13.6,16.2-26.1,18.1-37.5c0.4-1.8,1.2-2.5,2.3-2.1c1.1,0.4,1.5,1.2,0.9,2.6c-1.7,12.2-7.8,25.4-18.3,39.5
				c-10.5,14.1-22.6,28.3-36.5,42.6c7.8,11.6,12.6,24.8,14.3,39.5s0.7,29-3,42.7c-3.6,13.7-9.9,26-18.9,36.8
				c-9,10.8-20.1,18.2-33.5,22.3c-5.1,1.6-10.2,2.4-15.3,2.1c-5.1-0.2-10-1.4-14.7-3.4c-4.7-2-8.7-5-11.9-8.8
				c-3.2-3.8-5.3-8.6-6.3-14.3c-1.6-8.5-0.7-16.9,2.7-25.3c3.4-8.4,8.2-16.5,14.3-24.3c6.1-7.8,12.8-15.2,19.9-22.2
				C1185.1,332.8,1191.5,326.5,1197.3,320.9z M1200.5,318.2l4.1-4.1c-7.9-8.2-15.8-15.4-23.9-21.7c-8-6.3-15.6-12.9-22.8-19.8
				c-7.1-6.9-13.6-14.7-19.2-23.5c-5.7-8.7-10.1-19.7-13.3-32.8c-3.3-13.5-3.8-27.4-1.5-41.6c2.3-14.2,8.7-26.2,19.4-36
				c-6.7,3.7-12.1,8.6-16.4,14.7c-4.2,6.1-7.2,12.8-9,20.2c-1.8,7.4-2.5,14.9-2.1,22.6c0.4,7.7,1.4,14.9,3,21.7
				c3.5,14.3,8.2,25.9,14.4,34.7c6.1,8.8,12.9,16.6,20.4,23.2c7.5,6.6,15.2,13.1,23.3,19.3C1185,301.4,1192.8,309.1,1200.5,318.2z
				 M1147,410.7c1.3,5.6,3.5,9.7,6.4,12.3c3,2.7,6.5,4.2,10.6,4.7c4.1,0.5,8.3,0.1,12.7-1.2c4.3-1.3,8.2-3.3,11.7-6.3
				c6.7-5.4,12-12.1,16-20c4-7.9,6.5-16.3,7.5-25.2c1-8.9,0.5-17.7-1.6-26.4c-2.1-8.7-5.5-16.8-10.2-24.1
				c-5.8,5.6-12.2,11.6-19.1,17.9c-6.9,6.3-13.3,13.1-19.1,20.4c-5.8,7.3-10.3,14.9-13.4,22.8C1145.4,393.6,1144.9,402,1147,410.7z
				 M1160,213c6.6-9.2,11.7-18.8,15.1-28.9c2.2-6.4,3.1-12.2,2.7-17.4c-0.4-5.2-1.4-9-3.1-11.6c-1.7-2.5-3.9-3.2-6.8-1.8
				c-2.8,1.3-5.6,5.2-8.2,11.8c-2.3,6-3.7,13.3-4.2,21.9C1155.1,195.5,1156.6,204.2,1160,213z M1193.7,420.9
				c8.6-4.6,15.3-11.3,20.1-20c4.8-8.7,7.7-18.1,8.7-28c1-9.9,0.2-19.8-2.4-29.7c-2.6-9.9-6.9-18.5-12.9-25.9l-4.1,4.1
				c5.1,7.2,8.8,15.4,11,24.5c2.2,9.2,2.8,18.3,1.9,27.3c-1,9.1-3.3,17.8-6.9,26.3C1205.4,408,1200.3,415.1,1193.7,420.9z"/>
			<path class="st0" d="M1447.4,171.5c0.5-1.4,1.4-1.8,2.5-1.2c1.2,0.6,1.5,1.5,1,2.9c-4,14.9-9.2,29.5-15.6,43.9
				c-6.4,14.4-15.3,25.9-26.7,34.6c-0.8,10.7-2.6,21.1-5.5,31c-2.9,10-7.5,19.3-13.8,28c-5.4,7.2-11.8,13.4-19.2,18.5
				c-7.4,5.2-15.8,7.2-25.4,6.1c-14.2-1.2-26.7-8.5-37.5-21.9c-8.2-9.4-14.5-22.1-19-38.1c-4.5-16-6.9-32.4-7.2-49.4
				c-0.3-17,1.9-32.7,6.6-47.1c4.7-14.4,12.4-24.8,23.1-31.2c2.6-1.5,5.9-2.4,10.1-2.7c4.1-0.4,8.3-0.2,12.4,0.5
				c4.2,0.7,7.9,2.1,11.1,4.3c3.3,2.2,5.2,5.3,5.7,9.4c0.6,6.2-0.8,13.1-4.4,21c-3.6,7.8-7.1,16.9-10.5,27.2
				c-3.4,10.3-5.7,22.1-6.9,35.5c-1.2,13.3,1.2,29,7.2,46.9c1.9,6.3,4.7,11.8,8.4,16.6c3.7,4.8,7.8,8.2,12.3,10.3
				c4.5,2.1,9.4,2.4,14.7,0.9c5.3-1.5,10.5-5.6,15.7-12.3c5.4-7.2,9.6-15.6,12.6-25.1c3-9.6,4.6-17.9,5-25.2
				c-7.8,4.4-15.9,6.3-24.2,5.5c-8.4-0.7-15.7-4.5-22-11.4c-4.6-5.2-7.5-11.5-8.6-18.8c-1.1-7.3-1-14.4,0.2-21.2
				c1.3-6.8,3.7-13.1,7.2-18.8c3.5-5.7,7.4-9.8,11.9-12.3c4.4-2.5,9.1-2.9,13.9-1.1c4.9,1.8,9.5,6.6,13.9,14.3c4,7.9,7,16.8,9,26.9
				c2,10,3,19.5,3,28.3c7.7-6.5,14.8-15.7,21.4-27.6C1436.6,206.4,1442.4,190.8,1447.4,171.5z M1351.4,331.1
				c-12.4-2.5-23.6-9.5-33.5-21c-7.7-9.1-13.7-21-18.1-35.7c-4.4-14.7-6.9-30-7.6-45.9c-0.7-15.8,0.8-30.8,4.3-44.9
				c3.5-14.1,9.4-25.1,17.6-33c-10.5,5.5-18,15.2-22.7,29.1c-4.6,14-6.8,29.1-6.4,45.4c0.4,16.3,2.8,32.5,7.3,48.5
				c4.5,16,10.5,28.3,18.1,37c4.8,6,10.8,11.1,17.9,15.3C1335.5,330.1,1343.1,331.8,1351.4,331.1z M1404.3,249.5
				c-0.1-9.2-1-19-2.7-29.4c-1.7-10.3-4.7-19.4-9.1-27.2c-5.5-10.5-11.3-14.9-17.4-13.2c-6.1,1.7-11.2,6.3-15.3,13.8
				c-4.1,7.5-6.4,16.4-6.8,26.6c-0.5,10.2,2.4,18.8,8.7,25.7c5.9,7,12.6,10.5,20.2,10.6C1389.6,256.5,1397,254.2,1404.3,249.5z"/>
			<path class="st0" d="M1699.5,98.7c-2.3,16.6-4.1,33-5.5,49.3c-1.3,16.3-1.9,32.7-1.7,49.1c0.2,5.9,0.6,12.9,1.3,21.2
				c0.7,8.3,1.9,16.6,3.5,25c1.6,8.5,3.7,16.3,6.3,23.4c2.6,7.2,5.9,12.3,10,15.3c4.1,3,8.9,3.3,14.4,0.9
				c5.5-2.4,12.1-8.9,19.6-19.6c8.4-12.1,15.6-25.6,21.6-40.3c5.9-14.7,11.1-29.8,15.6-45.4c4.4-15.6,8.2-31.4,11.3-47.3
				c3.1-15.9,6.1-30.9,9-45.1c0.5-1.4,1.3-1.9,2.5-1.5c1.1,0.4,1.5,1.2,0.9,2.6c-2.7,13.3-5.6,28.1-8.9,44.5
				c-3.2,16.4-7,32.8-11.5,49.2c-4.5,16.5-9.5,32.5-15.2,48.2c-5.7,15.7-12.1,29.7-19.3,41.9c-3.3,5.4-7,11-11.2,16.6
				c-4.1,5.6-8.8,10.6-14.1,14.8c-5.3,4.2-11,7.3-17.1,9.2c-6.1,1.9-12.6,1.6-19.5-1c-8.3-3-15.3-8.5-21-16.4
				c-5.7-7.9-10.4-16.8-14-26.6c-3.6-9.9-6.4-19.9-8.2-30.2c-1.8-10.3-3-19.2-3.6-26.6c-0.3-6.6-0.7-13.3-1-20
				c-0.3-6.6-0.3-13.6,0-20.8c-0.9,4.9-2.4,11.5-4.3,20c-2,8.5-4.7,16.9-8.1,25.3c-3.4,8.4-7.4,15.8-11.7,22.1
				c-4.4,6.3-9.5,9.4-15.5,9.1c-8.8,0-16-4.5-21.6-13.7c-5.6-9.2-9.9-19.7-13-31.6c-3.1-11.9-5.4-23.6-6.9-35.3
				c-1.5-11.6-2.5-19.9-2.8-24.9c-2.7,20-6,40.8-9.9,62.4c-3.9,21.6-10,41.1-18.4,58.7c-1.6,3.8-3.8,7.7-6.6,11.7
				c-2.8,4.1-5.8,7.6-9.1,10.7c-3.3,3.1-7,5.4-11.3,6.8c-4.3,1.5-8.8,1.3-13.4-0.6c-7.7-2.3-14.2-7.1-19.5-14.2
				c-5.3-7.1-9.7-15.7-13.1-25.6c-3.4-9.9-6-20.5-7.7-31.9c-1.7-11.4-2.8-22.7-3.4-33.9c-0.6-11.2-0.8-21.7-0.6-31.4
				c0.2-9.7,0.5-17.8,1.1-24.3c0.6-11.5,1.7-23.4,3.4-35.6c1.7-12.2,3.7-24.7,6.1-37.5c0.3-2.2,2.9-3,7.6-2.5
				c4.8,0.5,10,2.1,15.7,4.7c5.7,2.6,10.8,6,15.4,10.2c4.6,4.2,6.6,8.6,6.1,13.4c-1.3,8.7-2.4,17.2-3.3,25.4
				c-1,8.2-1.7,16.6-2.1,25.2c-0.5,8.5-0.9,17.8-1.2,27.8c-0.3,10-0.3,20,0,30c0.3,10,1,20,2.1,29.8c1.1,9.8,3.1,18.8,5.9,27
				c0.5,2,1.3,4.4,2.4,7.3c1.1,2.9,2.6,5.4,4.3,7.5c1.8,2.1,3.7,3.4,5.7,4c2,0.6,4.4-0.5,7.1-3.3c5.1-5,9.4-12.8,13-23.3
				c3.6-10.5,6.6-21.8,9.2-33.8c2.6-12,4.7-23.8,6.3-35.3c1.6-11.5,2.9-20.8,3.7-27.7c0.4-3.5,0.9-7.3,1.4-11.4
				c0.5-4.1,1.2-7.8,2.1-10.9c-0.4-7-0.6-13.9-0.6-20.7c0-6.7,0.1-13.7,0-20.8c1.3-3.3,4.2-4.5,8.6-3.7c4.4,0.8,8.9,2.7,13.4,5.6
				c4.5,2.9,8.6,6.4,12.3,10.3c3.7,4,5.4,7.2,5.2,9.8c-0.4,7.3-0.4,15.4-0.1,24.3c0.3,9,0.8,18.2,1.6,27.7c0.8,9.5,2,18.6,3.4,27.3
				c1.5,8.7,2.9,16,4.4,22c0.4,1.6,1,3.8,1.9,6.5c0.9,2.7,2,5.3,3.4,7.7c1.4,2.4,3,4.1,4.7,5.2c1.7,1.1,3.7,0.3,6.1-2.4
				c3-3.3,5.8-8.8,8.3-16.5c2.5-7.8,4.8-16.1,6.9-25c2.1-8.9,3.8-17.5,5.1-25.9c1.4-8.3,2.4-14.7,3-19c1-9.9,2.1-19.7,3.4-29.2
				c1.3-9.6,2.8-19.4,4.6-29.5c0.7-2.3,3.7-3.2,8.8-2.8c5.2,0.4,10.5,1.9,15.9,4.4c5.4,2.5,10.3,5.8,14.7,10
				C1698,88.8,1700,93.5,1699.5,98.7z M1501.1,286.7c-8.1-2.2-14.8-6.9-20.1-14.1c-5.3-7.1-9.7-15.6-13-25.3
				c-3.4-9.7-5.9-20.2-7.6-31.6c-1.7-11.4-2.9-22.6-3.7-33.5c-0.8-11-0.9-21.3-0.6-31.1c0.4-9.8,0.7-17.6,0.9-23.6
				c1.6-23.1,4.6-46.6,8.9-70.4c-1.3-0.1-2.9,0.1-4.9,0.6c-4.5,25.1-7.4,48.7-8.8,71c-0.9,12-1.2,27-0.8,45
				c0.4,18,2.2,35.5,5.7,52.3c3.4,16.9,8.6,31.3,15.5,43.3C1479.5,281.3,1489,287.1,1501.1,286.7z M1605,240.8
				c-6.7-3.4-12.2-9.5-16.4-18.2c-4.2-8.7-7.3-16.3-9.3-23c-4.2-13.7-7-28.2-8.6-43.4c-1.6-15.2-2.4-30.1-2.6-44.8
				c-0.7-9.9-0.8-20.9-0.3-32.8c-1.5-0.9-3.1-0.7-4.9,0.6c-0.2,6-0.3,11.7-0.3,17.1c0.1,5.5,0.1,10.9,0.2,16.4
				c0.5,14.2,1.5,28.8,3,43.8c1.5,15,4.3,29.4,8.5,43.1c0.9,3.6,2.2,7.8,4,12.6c1.8,4.8,3.9,9.3,6.4,13.3c2.4,4,5.3,7.6,8.6,10.6
				C1596.4,239.1,1600.3,240.7,1605,240.8z M1658.5,75.1c-1.5,9.6-2.9,19.1-4.2,28.5c-1.3,9.4-2.5,18.8-3.6,28.3
				c-2.8,26.8-3.3,52.6-1.5,77.4c0.4,7.1,1.6,15.9,3.6,26.6c1.9,10.7,4.9,21,8.8,31c3.9,10,8.9,18.9,15,26.7
				c6.1,7.8,13.7,12.3,22.8,13.4c-8-3.5-14.8-9.3-20.3-17.2c-5.5-7.9-10-16.7-13.6-26.4c-3.6-9.7-6.3-19.4-8-29.3
				c-1.8-9.9-2.9-18.6-3.4-26c-1.6-22.4-1.4-44.7,0.6-67.1c2-22.4,4.7-44.5,8.3-66.4c-0.8,0.2-1.5,0.3-2.2,0.2
				C1660,74.8,1659.3,74.9,1658.5,75.1z"/>
			<path class="st0" d="M1904.9,46.6c-3.4,12.2-10.7,22.3-22.1,30.3c-11.3,8-22.6,14-33.9,18c-1.3,7-2.2,14.5-2.8,22.5
				c-0.6,7.9-0.8,15.9-0.6,23.8c0.2,7.9,1.1,15.6,2.7,23c1.6,7.4,3.9,14.1,7.1,20.1c5.3,9.7,11.2,15.4,17.7,17.2
				c6.5,1.8,13.1,1.2,19.7-1.9c6.6-3.1,13-7.6,19.2-13.5c6.2-5.9,11.1-11.6,14.8-17.2c6.2-9.1,11.7-18.8,16.3-29.2
				c4.6-10.4,8.6-20.9,12-31.6c3.3-10.7,6.2-21.4,8.7-32.1c2.5-10.7,4.9-20.8,7.2-30.2c0.4-1.8,1.2-2.4,2.4-1.8
				c1.2,0.6,1.5,1.5,1,2.9c-4.3,22.5-9.6,44.9-16,67.3c-6.4,22.4-15.4,42.6-27.1,60.5c-4.3,6.5-9.4,13.1-15.1,19.8
				c-5.8,6.7-11.9,12.5-18.5,17.4c-6.6,5-13.8,8.6-21.7,10.9c-7.9,2.3-16.1,2.2-24.7-0.4c-10.5-3.4-19.5-10.2-27.1-20.6
				c-5.1-7.2-9.2-15.4-12.2-24.5c-3-9.2-5.4-18.8-7-28.9c-1.6-10.1-2.4-20.3-2.3-30.4c0.1-10.1,0.7-19.8,1.9-28.9
				c2.1-15.7,6.2-31,12.3-45.9c6.1-14.9,16.3-26.9,30.5-35.8c8.1-4.9,16.1-7.4,24.1-7.4c8,0,14.8,1.8,20.6,5.5
				c5.7,3.7,10,9.1,12.7,16.2C1907.6,28.8,1907.6,37.1,1904.9,46.6z M1849,11.4c-13.6,8.3-23.2,19.8-28.9,34.5
				c-5.7,14.6-9.6,29.4-11.5,44.1c-1.2,10.8-1.6,23.5-1.2,38.2c0.4,14.7,2.5,28.6,6.3,41.7c3.8,13.2,9.5,24.6,17.1,34.1
				c7.6,9.5,17.7,14.7,30.6,15.4c-11-3.7-19.8-10.6-26.5-20.8c-6.7-10.2-11.7-21.7-15-34.6c-3.3-12.9-5.2-26.3-5.6-40.3
				c-0.4-14-0.1-26.4,1.1-37.2c1.7-13.9,5-27.4,9.8-40.6C1829.9,32.8,1837.9,21.3,1849,11.4z M1850.2,89.5c16.3-5.6,28.3-12.6,36-21
				c7.7-8.4,12.4-16.6,14.3-24.6c1.8-6.3,2.1-12,0.7-16.9c-1.4-4.9-3.6-8.4-6.6-10.4c-3-2-6.7-2.1-11.1-0.2
				c-4.4,1.9-8.7,6.3-12.9,13.2c-4.4,7.8-8.3,16.8-11.5,27.1s-5.9,19.8-7.9,28.8L1850.2,89.5z"/>
		</g>
	</g>
	<g>
		
			<rect x="25.8" y="433.7" transform="matrix(0.9721 -0.2344 0.2344 0.9721 -73.3104 252.7455)" class="st0" width="2001.8" height="2.3"/>
	</g>
</g>
</svg>
